<mxfile>
    <diagram id="CwqIJhX3pIehWAISivcS" name="Page-1">
        <mxGraphModel dx="352" dy="309" grid="1" gridSize="10" guides="1" tooltips="1" connect="1" arrows="1" fold="1" page="1" pageScale="1" pageWidth="827" pageHeight="1169" math="0" shadow="0">
            <root>
                <mxCell id="0"/>
                <mxCell id="1" parent="0"/>
                <mxCell id="2" value="" style="rounded=1;whiteSpace=wrap;html=1;fontFamily=Georgia;fontSize=12;fillColor=#E6E6E6;" parent="1" vertex="1">
                    <mxGeometry x="70" y="20" width="530" height="480" as="geometry"/>
                </mxCell>
                <mxCell id="5" value="" style="rounded=1;whiteSpace=wrap;html=1;fontFamily=Georgia;fontSize=12;fillColor=#FFE6CC;gradientColor=#ffffff;" parent="1" vertex="1">
                    <mxGeometry x="340" y="80" width="240" height="370" as="geometry"/>
                </mxCell>
                <mxCell id="4" value="" style="rounded=1;whiteSpace=wrap;html=1;fontFamily=Georgia;fontSize=12;fillColor=#E6FFCC;gradientColor=#ffffff;" parent="1" vertex="1">
                    <mxGeometry x="90" y="80" width="210" height="290" as="geometry"/>
                </mxCell>
                <mxCell id="6" value="&lt;span style=&quot;font-size: 14px&quot;&gt;&lt;b&gt;Instrumentation&lt;/b&gt;&lt;/span&gt;" style="text;html=1;align=center;verticalAlign=middle;resizable=0;points=[];autosize=1;fontSize=12;fontFamily=Georgia;" parent="1" vertex="1">
                    <mxGeometry x="140" y="90" width="110" height="20" as="geometry"/>
                </mxCell>
                <mxCell id="14" value="Initiate compilation" style="shape=ext;double=1;rounded=0;whiteSpace=wrap;html=1;strokeColor=#545454;strokeWidth=1;fontFamily=Georgia;fontSize=12;fillColor=#B6C9A1;" parent="1" vertex="1">
                    <mxGeometry x="140" y="120" width="110" height="40" as="geometry"/>
                </mxCell>
                <mxCell id="54" value="" style="rounded=1;whiteSpace=wrap;html=1;strokeColor=#545454;strokeWidth=1;fontFamily=Georgia;fontSize=12;dashed=1;dashPattern=1 2;fillColor=#E3CDB6;" parent="1" vertex="1">
                    <mxGeometry x="350" y="180" width="220" height="260" as="geometry"/>
                </mxCell>
                <mxCell id="7" value="&lt;b&gt;&lt;font style=&quot;font-size: 14px&quot;&gt;Fuzzing&lt;/font&gt;&lt;/b&gt;" style="text;html=1;align=center;verticalAlign=middle;resizable=0;points=[];autosize=1;fontSize=12;fontFamily=Georgia;" parent="1" vertex="1">
                    <mxGeometry x="430" y="90" width="60" height="20" as="geometry"/>
                </mxCell>
                <mxCell id="87" style="edgeStyle=orthogonalEdgeStyle;rounded=0;orthogonalLoop=1;jettySize=auto;html=1;exitX=0.25;exitY=1;exitDx=0;exitDy=0;entryX=0.25;entryY=0;entryDx=0;entryDy=0;" parent="1" source="31" target="45" edge="1">
                    <mxGeometry relative="1" as="geometry"/>
                </mxCell>
                <mxCell id="31" value="Initial setup" style="shape=ext;double=1;rounded=0;whiteSpace=wrap;html=1;strokeColor=#545454;strokeWidth=1;fontFamily=Georgia;fontSize=12;fillColor=#E8BABA;" parent="1" vertex="1">
                    <mxGeometry x="405" y="120" width="110" height="40" as="geometry"/>
                </mxCell>
                <mxCell id="55" value="&lt;font size=&quot;1&quot;&gt;&lt;b style=&quot;font-size: 12px&quot;&gt;Fuzzing Loop&lt;/b&gt;&lt;/font&gt;" style="text;html=1;align=center;verticalAlign=middle;resizable=0;points=[];autosize=1;fontSize=12;fontFamily=Georgia;" parent="1" vertex="1">
                    <mxGeometry x="460" y="190" width="90" height="20" as="geometry"/>
                </mxCell>
                <mxCell id="3" value="&lt;b&gt;&lt;font style=&quot;font-size: 18px&quot;&gt;Waffle&lt;/font&gt;&lt;/b&gt;" style="text;html=1;align=center;verticalAlign=middle;resizable=0;points=[];autosize=1;fontFamily=Georgia;fontSize=12;" parent="1" vertex="1">
                    <mxGeometry x="295" y="40" width="70" height="20" as="geometry"/>
                </mxCell>
                <mxCell id="78" style="edgeStyle=orthogonalEdgeStyle;rounded=0;orthogonalLoop=1;jettySize=auto;html=1;exitX=1;exitY=0.5;exitDx=0;exitDy=0;entryX=0;entryY=0.5;entryDx=0;entryDy=0;endArrow=block;endFill=1;strokeWidth=2;fontFamily=Georgia;fontSize=12;dashed=1;strokeColor=#0000FF;" parent="1" source="29" target="31" edge="1">
                    <mxGeometry relative="1" as="geometry"/>
                </mxCell>
                <mxCell id="80" value="" style="endArrow=block;html=1;strokeWidth=2;fontFamily=Georgia;fontSize=12;endFill=1;entryX=0;entryY=0.5;entryDx=0;entryDy=0;strokeColor=#009900;" parent="1" target="14" edge="1">
                    <mxGeometry width="50" height="50" relative="1" as="geometry">
                        <mxPoint x="110" y="140" as="sourcePoint"/>
                        <mxPoint x="121.5" y="139.57999999999998" as="targetPoint"/>
                    </mxGeometry>
                </mxCell>
                <mxCell id="90" style="edgeStyle=orthogonalEdgeStyle;rounded=0;orthogonalLoop=1;jettySize=auto;html=1;exitX=1;exitY=0.5;exitDx=0;exitDy=0;entryX=1;entryY=0.5;entryDx=0;entryDy=0;" parent="1" source="34" target="45" edge="1">
                    <mxGeometry relative="1" as="geometry"/>
                </mxCell>
                <mxCell id="89" style="edgeStyle=orthogonalEdgeStyle;rounded=0;orthogonalLoop=1;jettySize=auto;html=1;exitX=0.25;exitY=1;exitDx=0;exitDy=0;entryX=0.25;entryY=0;entryDx=0;entryDy=0;" parent="1" source="44" target="34" edge="1">
                    <mxGeometry relative="1" as="geometry"/>
                </mxCell>
                <mxCell id="88" style="edgeStyle=orthogonalEdgeStyle;rounded=0;orthogonalLoop=1;jettySize=auto;html=1;exitX=0.25;exitY=1;exitDx=0;exitDy=0;entryX=0.25;entryY=0;entryDx=0;entryDy=0;" parent="1" source="45" target="44" edge="1">
                    <mxGeometry relative="1" as="geometry"/>
                </mxCell>
                <mxCell id="45" value="Cull queue" style="shape=ext;double=1;rounded=0;whiteSpace=wrap;html=1;strokeColor=#545454;strokeWidth=1;fontFamily=Georgia;fontSize=12;fillColor=#E8BABA;" parent="1" vertex="1">
                    <mxGeometry x="405" y="220" width="110" height="40" as="geometry"/>
                </mxCell>
                <mxCell id="79" value="" style="endArrow=block;html=1;strokeWidth=2;fontFamily=Georgia;fontSize=12;strokeColor=#00BEF2;endFill=1;entryX=0.75;entryY=0;entryDx=0;entryDy=0;" parent="1" target="44" edge="1">
                    <mxGeometry width="50" height="50" relative="1" as="geometry">
                        <mxPoint x="487" y="269" as="sourcePoint"/>
                        <mxPoint x="380" y="332.5" as="targetPoint"/>
                    </mxGeometry>
                </mxCell>
                <mxCell id="81" value="" style="endArrow=block;html=1;strokeWidth=2;fontFamily=Georgia;fontSize=12;endFill=1;entryX=0.5;entryY=0;entryDx=0;entryDy=0;strokeColor=#0000FF;" parent="1" target="44" edge="1">
                    <mxGeometry width="50" height="50" relative="1" as="geometry">
                        <mxPoint x="460" y="269" as="sourcePoint"/>
                        <mxPoint x="380" y="299.31" as="targetPoint"/>
                    </mxGeometry>
                </mxCell>
                <mxCell id="92" value="" style="group" parent="1" vertex="1" connectable="0">
                    <mxGeometry x="132.5" y="420" width="160" height="30" as="geometry"/>
                </mxCell>
                <mxCell id="69" value="" style="verticalLabelPosition=bottom;html=1;verticalAlign=top;align=center;strokeColor=none;shape=mxgraph.azure.cloud_services_configuration_file;pointerEvents=1;dashed=1;dashPattern=1 2;fontFamily=Georgia;fontSize=12;fillColor=#0000FF;" parent="92" vertex="1">
                    <mxGeometry width="28.5" height="30" as="geometry"/>
                </mxCell>
                <mxCell id="73" value="" style="endArrow=block;html=1;strokeWidth=2;fontFamily=Georgia;fontSize=12;exitX=1;exitY=0.5;exitDx=0;exitDy=0;exitPerimeter=0;strokeColor=#0000FF;endFill=1;" parent="92" source="69" edge="1">
                    <mxGeometry width="50" height="50" relative="1" as="geometry">
                        <mxPoint x="50" y="10" as="sourcePoint"/>
                        <mxPoint x="60" y="15" as="targetPoint"/>
                    </mxGeometry>
                </mxCell>
                <mxCell id="76" value="&lt;font color=&quot;#0000ff&quot; size=&quot;1&quot;&gt;&lt;b&gt;Instrumented binary&lt;/b&gt;&lt;/font&gt;" style="text;html=1;align=center;verticalAlign=middle;resizable=0;points=[];autosize=1;fontSize=12;fontFamily=Georgia;" parent="92" vertex="1">
                    <mxGeometry x="60" y="5" width="100" height="20" as="geometry"/>
                </mxCell>
                <mxCell id="93" value="" style="group" parent="1" vertex="1" connectable="0">
                    <mxGeometry x="132.5" y="460" width="150" height="30" as="geometry"/>
                </mxCell>
                <mxCell id="60" value="" style="verticalLabelPosition=bottom;html=1;verticalAlign=top;align=center;strokeColor=none;shape=mxgraph.azure.cloud_services_configuration_file;pointerEvents=1;dashed=1;dashPattern=1 2;fontFamily=Georgia;fontSize=12;fillColor=#00BEF2;" parent="93" vertex="1">
                    <mxGeometry width="28.5" height="30" as="geometry"/>
                </mxCell>
                <mxCell id="72" value="" style="endArrow=block;html=1;strokeWidth=2;fontFamily=Georgia;fontSize=12;exitX=1;exitY=0.5;exitDx=0;exitDy=0;exitPerimeter=0;strokeColor=#00BEF2;endFill=1;" parent="93" source="60" edge="1">
                    <mxGeometry width="50" height="50" relative="1" as="geometry">
                        <mxPoint x="80" y="20" as="sourcePoint"/>
                        <mxPoint x="60" y="15" as="targetPoint"/>
                    </mxGeometry>
                </mxCell>
                <mxCell id="75" value="&lt;font color=&quot;#00bef2&quot; size=&quot;1&quot;&gt;&lt;b&gt;Input test cases&lt;/b&gt;&lt;/font&gt;" style="text;html=1;align=center;verticalAlign=middle;resizable=0;points=[];autosize=1;fontSize=12;fontFamily=Georgia;" parent="93" vertex="1">
                    <mxGeometry x="70" y="5" width="80" height="20" as="geometry"/>
                </mxCell>
                <mxCell id="95" value="" style="verticalLabelPosition=bottom;html=1;verticalAlign=top;align=center;strokeColor=none;shape=mxgraph.azure.cloud_services_configuration_file;pointerEvents=1;dashed=1;dashPattern=1 2;fontFamily=Georgia;fontSize=12;fillColor=#CC0000;" parent="1" vertex="1">
                    <mxGeometry x="390" y="460" width="28.5" height="30" as="geometry"/>
                </mxCell>
                <mxCell id="96" value="" style="endArrow=block;html=1;strokeWidth=2;fontFamily=Georgia;fontSize=12;exitX=1;exitY=0.5;exitDx=0;exitDy=0;exitPerimeter=0;endFill=1;strokeColor=#CC0000;" parent="1" source="95" edge="1">
                    <mxGeometry x="390" y="460" width="50" height="50" as="geometry">
                        <mxPoint x="470" y="480" as="sourcePoint"/>
                        <mxPoint x="450" y="475" as="targetPoint"/>
                    </mxGeometry>
                </mxCell>
                <mxCell id="97" value="&lt;font size=&quot;1&quot; color=&quot;#cc0000&quot;&gt;&lt;b&gt;Results&lt;/b&gt;&lt;/font&gt;" style="text;html=1;align=center;verticalAlign=middle;resizable=0;points=[];autosize=1;fontSize=12;fontFamily=Georgia;" parent="1" vertex="1">
                    <mxGeometry x="475" y="465" width="50" height="20" as="geometry"/>
                </mxCell>
                <mxCell id="101" value="" style="group" parent="1" vertex="1" connectable="0">
                    <mxGeometry x="132.5" y="380" width="145" height="30" as="geometry"/>
                </mxCell>
                <mxCell id="70" value="" style="verticalLabelPosition=bottom;html=1;verticalAlign=top;align=center;strokeColor=none;shape=mxgraph.azure.cloud_services_configuration_file;pointerEvents=1;dashed=1;dashPattern=1 2;fontFamily=Georgia;fontSize=12;fillColor=#009900;" parent="101" vertex="1">
                    <mxGeometry width="28.5" height="30" as="geometry"/>
                </mxCell>
                <mxCell id="74" value="" style="endArrow=block;html=1;strokeWidth=2;fontFamily=Georgia;fontSize=12;exitX=1;exitY=0.5;exitDx=0;exitDy=0;exitPerimeter=0;endFill=1;strokeColor=#009900;" parent="101" source="70" edge="1">
                    <mxGeometry width="50" height="50" as="geometry">
                        <mxPoint x="48.5" y="14.659999999999968" as="sourcePoint"/>
                        <mxPoint x="60" y="15" as="targetPoint"/>
                    </mxGeometry>
                </mxCell>
                <mxCell id="77" value="&lt;b style=&quot;font-size: x-small&quot;&gt;&lt;font color=&quot;#009900&quot;&gt;Source Code&lt;/font&gt;&lt;/b&gt;" style="text;html=1;align=center;verticalAlign=middle;resizable=0;points=[];autosize=1;fontSize=12;fontFamily=Georgia;" parent="101" vertex="1">
                    <mxGeometry x="75" y="5" width="70" height="20" as="geometry"/>
                </mxCell>
                <mxCell id="103" value="" style="endArrow=block;html=1;strokeWidth=2;fontFamily=Georgia;fontSize=12;exitX=1;exitY=0.5;exitDx=0;exitDy=0;exitPerimeter=0;endFill=1;strokeColor=#CC0000;" parent="1" edge="1">
                    <mxGeometry x="486.5" y="395" width="50" height="50" as="geometry">
                        <mxPoint x="515" y="410" as="sourcePoint"/>
                        <mxPoint x="546.5" y="410" as="targetPoint"/>
                    </mxGeometry>
                </mxCell>
                <mxCell id="104" value="" style="rounded=1;whiteSpace=wrap;html=1;strokeColor=#FF0303;strokeWidth=2;fillColor=#FF0303;" vertex="1" parent="1">
                    <mxGeometry x="135" y="175" width="120" height="50" as="geometry"/>
                </mxCell>
                <mxCell id="15" value="Specify&lt;br&gt;shared memory" style="shape=ext;double=1;rounded=0;whiteSpace=wrap;html=1;strokeColor=#545454;strokeWidth=1;fontFamily=Georgia;fontSize=12;fillColor=#B6C9A1;" parent="1" vertex="1">
                    <mxGeometry x="140" y="180" width="110" height="40" as="geometry"/>
                </mxCell>
                <mxCell id="106" value="" style="rounded=1;whiteSpace=wrap;html=1;strokeColor=#FF0303;strokeWidth=2;fillColor=#FF0303;" vertex="1" parent="1">
                    <mxGeometry x="135" y="235" width="120" height="50" as="geometry"/>
                </mxCell>
                <mxCell id="24" value="Analyze and Insert instructions" style="shape=ext;double=1;rounded=0;whiteSpace=wrap;html=1;strokeColor=#545454;strokeWidth=1;fontFamily=Georgia;fontSize=12;fillColor=#B6C9A1;" parent="1" vertex="1">
                    <mxGeometry x="140" y="240" width="110" height="40" as="geometry"/>
                </mxCell>
                <mxCell id="29" value="Generate executable from IR" style="shape=ext;double=1;rounded=0;whiteSpace=wrap;html=1;strokeColor=#545454;strokeWidth=1;fontFamily=Georgia;fontSize=12;fillColor=#B6C9A1;" parent="1" vertex="1">
                    <mxGeometry x="140" y="300" width="110" height="40" as="geometry"/>
                </mxCell>
                <mxCell id="108" value="" style="rounded=1;whiteSpace=wrap;html=1;strokeColor=#FF0303;strokeWidth=2;fillColor=#FF0303;" vertex="1" parent="1">
                    <mxGeometry x="400" y="375" width="120" height="50" as="geometry"/>
                </mxCell>
                <mxCell id="34" value="Fuzz entry" style="shape=ext;double=1;rounded=0;whiteSpace=wrap;html=1;strokeColor=#545454;strokeWidth=1;fontFamily=Georgia;fontSize=12;fillColor=#E8BABA;" parent="1" vertex="1">
                    <mxGeometry x="405" y="380" width="110" height="40" as="geometry"/>
                </mxCell>
                <mxCell id="28" style="edgeStyle=orthogonalEdgeStyle;rounded=0;orthogonalLoop=1;jettySize=auto;html=1;exitX=0.5;exitY=1;exitDx=0;exitDy=0;entryX=0.5;entryY=0;entryDx=0;entryDy=0;fontFamily=Georgia;fontSize=12;endArrow=classicThin;endFill=1;" parent="1" source="15" target="24" edge="1">
                    <mxGeometry x="90" y="80" as="geometry"/>
                </mxCell>
                <mxCell id="25" style="edgeStyle=orthogonalEdgeStyle;rounded=0;orthogonalLoop=1;jettySize=auto;html=1;exitX=0.5;exitY=1;exitDx=0;exitDy=0;entryX=0.5;entryY=0;entryDx=0;entryDy=0;fontFamily=Georgia;fontSize=12;endArrow=classicThin;endFill=1;" parent="1" source="14" target="15" edge="1">
                    <mxGeometry x="90" y="80" as="geometry"/>
                </mxCell>
                <mxCell id="30" style="edgeStyle=orthogonalEdgeStyle;rounded=0;orthogonalLoop=1;jettySize=auto;html=1;exitX=0.5;exitY=1;exitDx=0;exitDy=0;fontFamily=Georgia;fontSize=12;endArrow=classicThin;endFill=1;" parent="1" source="24" target="29" edge="1">
                    <mxGeometry x="90" y="80" as="geometry"/>
                </mxCell>
                <mxCell id="109" value="" style="rounded=1;whiteSpace=wrap;html=1;strokeColor=#FF0303;strokeWidth=2;fillColor=#FF0303;" vertex="1" parent="1">
                    <mxGeometry x="400" y="295" width="120" height="50" as="geometry"/>
                </mxCell>
                <mxCell id="44" value="Process front entry" style="shape=ext;double=1;rounded=0;whiteSpace=wrap;html=1;strokeColor=#545454;strokeWidth=1;fontFamily=Georgia;fontSize=12;fillColor=#E8BABA;" parent="1" vertex="1">
                    <mxGeometry x="405" y="300" width="110" height="40" as="geometry"/>
                </mxCell>
            </root>
        </mxGraphModel>
    </diagram>
</mxfile>